<svg xmlns="http://www.w3.org/2000/svg" width="375" viewBox="0 0 375 375" height="375" version="1.0"><path fill="#004AAD" d="M 375 187.5 C 375 190.570312 374.925781 193.636719 374.773438 196.699219 C 374.625 199.765625 374.398438 202.824219 374.097656 205.878906 C 373.796875 208.933594 373.421875 211.976562 372.96875 215.011719 C 372.519531 218.046875 371.996094 221.070312 371.398438 224.078125 C 370.796875 227.089844 370.125 230.082031 369.378906 233.058594 C 368.636719 236.035156 367.816406 238.992188 366.925781 241.929688 C 366.035156 244.863281 365.074219 247.777344 364.039062 250.667969 C 363.003906 253.554688 361.902344 256.417969 360.726562 259.253906 C 359.554688 262.089844 358.308594 264.890625 356.996094 267.667969 C 355.6875 270.441406 354.308594 273.179688 352.859375 275.886719 C 351.414062 278.59375 349.902344 281.261719 348.324219 283.894531 C 346.746094 286.527344 345.105469 289.117188 343.402344 291.667969 C 341.695312 294.222656 339.929688 296.730469 338.101562 299.195312 C 336.273438 301.660156 334.386719 304.078125 332.441406 306.449219 C 330.492188 308.820312 328.488281 311.144531 326.429688 313.417969 C 324.367188 315.691406 322.253906 317.914062 320.082031 320.082031 C 317.914062 322.253906 315.691406 324.367188 313.417969 326.429688 C 311.144531 328.488281 308.820312 330.492188 306.449219 332.441406 C 304.078125 334.386719 301.660156 336.273438 299.195312 338.101562 C 296.730469 339.929688 294.222656 341.695312 291.667969 343.402344 C 289.117188 345.105469 286.527344 346.746094 283.894531 348.324219 C 281.261719 349.902344 278.59375 351.414062 275.886719 352.859375 C 273.179688 354.308594 270.441406 355.6875 267.667969 356.996094 C 264.894531 358.308594 262.089844 359.554688 259.253906 360.726562 C 256.417969 361.902344 253.554688 363.003906 250.667969 364.039062 C 247.777344 365.074219 244.863281 366.035156 241.929688 366.925781 C 238.992188 367.816406 236.035156 368.636719 233.058594 369.378906 C 230.082031 370.125 227.089844 370.796875 224.078125 371.398438 C 221.070312 371.996094 218.046875 372.519531 215.011719 372.96875 C 211.976562 373.421875 208.933594 373.796875 205.878906 374.097656 C 202.824219 374.398438 199.765625 374.625 196.699219 374.773438 C 193.636719 374.925781 190.570312 375 187.5 375 C 184.429688 375 181.363281 374.925781 178.300781 374.773438 C 175.234375 374.625 172.175781 374.398438 169.121094 374.097656 C 166.066406 373.796875 163.023438 373.421875 159.988281 372.96875 C 156.953125 372.519531 153.929688 371.996094 150.921875 371.398438 C 147.910156 370.796875 144.917969 370.125 141.941406 369.378906 C 138.964844 368.636719 136.007812 367.816406 133.070312 366.925781 C 130.136719 366.035156 127.222656 365.074219 124.332031 364.039062 C 121.445312 363.003906 118.582031 361.902344 115.746094 360.726562 C 112.910156 359.554688 110.105469 358.308594 107.332031 356.996094 C 104.558594 355.6875 101.820312 354.308594 99.113281 352.859375 C 96.40625 351.414062 93.738281 349.902344 91.105469 348.324219 C 88.472656 346.746094 85.882812 345.105469 83.332031 343.402344 C 80.777344 341.695312 78.269531 339.929688 75.804688 338.101562 C 73.339844 336.273438 70.921875 334.386719 68.550781 332.441406 C 66.179688 330.492188 63.855469 328.488281 61.582031 326.429688 C 59.308594 324.367188 57.085938 322.253906 54.917969 320.082031 C 52.746094 317.914062 50.632812 315.691406 48.570312 313.417969 C 46.511719 311.144531 44.507812 308.820312 42.558594 306.449219 C 40.613281 304.078125 38.726562 301.660156 36.898438 299.195312 C 35.070312 296.730469 33.304688 294.222656 31.597656 291.667969 C 29.894531 289.117188 28.253906 286.527344 26.675781 283.894531 C 25.097656 281.261719 23.585938 278.59375 22.140625 275.886719 C 20.691406 273.179688 19.3125 270.441406 18.003906 267.667969 C 16.691406 264.890625 15.445312 262.089844 14.273438 259.253906 C 13.097656 256.417969 11.996094 253.554688 10.960938 250.667969 C 9.925781 247.777344 8.964844 244.863281 8.074219 241.929688 C 7.183594 238.992188 6.363281 236.035156 5.621094 233.058594 C 4.875 230.082031 4.203125 227.089844 3.601562 224.078125 C 3.003906 221.070312 2.480469 218.046875 2.03125 215.011719 C 1.578125 211.976562 1.203125 208.933594 0.902344 205.878906 C 0.601562 202.824219 0.375 199.765625 0.226562 196.699219 C 0.0742188 193.636719 0 190.570312 0 187.5 C 0 184.429688 0.0742188 181.363281 0.226562 178.300781 C 0.375 175.234375 0.601562 172.175781 0.902344 169.121094 C 1.203125 166.066406 1.578125 163.023438 2.03125 159.988281 C 2.480469 156.953125 3.003906 153.929688 3.601562 150.921875 C 4.203125 147.910156 4.875 144.917969 5.621094 141.941406 C 6.363281 138.964844 7.183594 136.007812 8.074219 133.070312 C 8.964844 130.136719 9.925781 127.222656 10.960938 124.332031 C 11.996094 121.445312 13.097656 118.582031 14.273438 115.746094 C 15.445312 112.910156 16.691406 110.105469 18.003906 107.332031 C 19.3125 104.558594 20.691406 101.820312 22.140625 99.113281 C 23.585938 96.40625 25.097656 93.738281 26.675781 91.105469 C 28.253906 88.472656 29.894531 85.882812 31.597656 83.332031 C 33.304688 80.777344 35.070312 78.269531 36.898438 75.804688 C 38.726562 73.339844 40.613281 70.921875 42.558594 68.550781 C 44.507812 66.179688 46.511719 63.855469 48.570312 61.582031 C 50.632812 59.308594 52.746094 57.085938 54.917969 54.917969 C 57.085938 52.746094 59.308594 50.632812 61.582031 48.570312 C 63.855469 46.511719 66.179688 44.507812 68.550781 42.558594 C 70.921875 40.613281 73.339844 38.726562 75.804688 36.898438 C 78.269531 35.070312 80.777344 33.304688 83.332031 31.597656 C 85.882812 29.894531 88.472656 28.253906 91.105469 26.675781 C 93.738281 25.097656 96.40625 23.585938 99.113281 22.140625 C 101.820312 20.691406 104.558594 19.3125 107.332031 18.003906 C 110.105469 16.691406 112.910156 15.445312 115.746094 14.273438 C 118.582031 13.097656 121.445312 11.996094 124.332031 10.960938 C 127.222656 9.925781 130.136719 8.964844 133.070312 8.074219 C 136.007812 7.183594 138.964844 6.363281 141.941406 5.617188 C 144.917969 4.875 147.910156 4.203125 150.921875 3.601562 C 153.929688 3.003906 156.953125 2.480469 159.988281 2.03125 C 163.023438 1.578125 166.066406 1.203125 169.121094 0.902344 C 172.175781 0.601562 175.234375 0.375 178.300781 0.226562 C 181.363281 0.0742188 184.429688 0 187.5 0 C 190.570312 0 193.636719 0.0742188 196.699219 0.226562 C 199.765625 0.375 202.824219 0.601562 205.878906 0.902344 C 208.933594 1.203125 211.976562 1.578125 215.011719 2.03125 C 218.046875 2.480469 221.070312 3.003906 224.078125 3.601562 C 227.089844 4.203125 230.082031 4.875 233.058594 5.617188 C 236.035156 6.363281 238.992188 7.183594 241.929688 8.074219 C 244.863281 8.964844 247.777344 9.925781 250.667969 10.960938 C 253.554688 11.996094 256.417969 13.097656 259.253906 14.273438 C 262.089844 15.445312 264.890625 16.691406 267.667969 18.003906 C 270.441406 19.3125 273.179688 20.691406 275.886719 22.140625 C 278.59375 23.585938 281.261719 25.097656 283.894531 26.675781 C 286.527344 28.253906 289.117188 29.894531 291.667969 31.597656 C 294.222656 33.304688 296.730469 35.070312 299.195312 36.898438 C 301.660156 38.726562 304.078125 40.613281 306.449219 42.558594 C 308.820312 44.507812 311.144531 46.511719 313.417969 48.570312 C 315.691406 50.632812 317.914062 52.746094 320.082031 54.917969 C 322.253906 57.085938 324.367188 59.308594 326.429688 61.582031 C 328.488281 63.855469 330.492188 66.179688 332.441406 68.550781 C 334.386719 70.921875 336.273438 73.339844 338.101562 75.804688 C 339.929688 78.269531 341.695312 80.777344 343.402344 83.332031 C 345.105469 85.882812 346.746094 88.472656 348.324219 91.105469 C 349.902344 93.738281 351.414062 96.40625 352.859375 99.113281 C 354.308594 101.820312 355.6875 104.558594 356.996094 107.332031 C 358.308594 110.105469 359.554688 112.910156 360.726562 115.746094 C 361.902344 118.582031 363.003906 121.445312 364.039062 124.332031 C 365.074219 127.222656 366.035156 130.136719 366.925781 133.070312 C 367.816406 136.007812 368.636719 138.964844 369.378906 141.941406 C 370.125 144.917969 370.796875 147.910156 371.398438 150.921875 C 371.996094 153.929688 372.519531 156.953125 372.96875 159.988281 C 373.421875 163.023438 373.796875 166.066406 374.097656 169.121094 C 374.398438 172.175781 374.625 175.234375 374.773438 178.300781 C 374.925781 181.363281 375 184.429688 375 187.5 Z M 375 187.5"/><path fill="#FFFFFE" d="M 243.679688 145.378906 C 248.351562 144.753906 253.4375 144.421875 257.402344 144.167969 C 260.976562 143.933594 263.695312 143.757812 264.789062 143.417969 C 266.304688 142.945312 266.902344 142.027344 266.453125 140.585938 C 258.699219 115.6875 243.347656 98.65625 225.097656 89.328125 C 212.292969 82.78125 198.078125 80.039062 184.070312 81.035156 C 170.0625 82.035156 156.25 86.773438 144.257812 95.191406 C 126.765625 107.46875 113.160156 127.554688 108.480469 155.253906 C 108.179688 157.050781 109.402344 158.058594 111.816406 158.464844 C 115.1875 159.035156 122.820312 158.902344 131.238281 158.757812 C 133.902344 158.710938 136.652344 158.664062 139.359375 158.636719 C 137.265625 157.332031 135.664062 155.636719 135.007812 153.417969 C 134.703125 152.375 134.628906 151.289062 134.769531 150.214844 C 136.972656 133.734375 176.214844 128.324219 188.863281 126.933594 C 200.675781 125.636719 213.5625 125.054688 225.402344 126.242188 C 231.894531 126.894531 244.976562 128.589844 246.8125 136.414062 C 247.585938 139.707031 246.109375 142.738281 243.679688 145.378906 Z M 243.679688 145.378906"/><path fill="#FFFFFE" d="M 175.0625 159.730469 C 172.695312 159.777344 137.625 160.308594 138.902344 150.765625 C 142.238281 125.765625 287.984375 120.039062 228.667969 150.636719 L 228.671875 150.640625 C 228.5625 150.695312 228.449219 150.742188 228.339844 150.777344 C 226.722656 151.347656 198.269531 161.285156 175.0625 159.730469 Z M 175.0625 159.730469"/><path fill="#FFFFFE" d="M 155.230469 163.167969 C 155.273438 163.558594 155.320312 163.953125 155.375 164.347656 C 155.703125 166.855469 156.21875 169.378906 156.984375 171.816406 C 160.949219 184.492188 157.214844 188.027344 157.207031 188.039062 C 156.996094 188.25 156.839844 188.492188 156.738281 188.753906 C 156.160156 190.035156 153.476562 197.210938 158.449219 211.65625 C 163.378906 225.988281 158.570312 236.550781 158.523438 236.65625 L 158.355469 237.210938 C 158.199219 238.132812 156.726562 247.769531 160.128906 262.597656 C 163.332031 276.5625 159.886719 279.539062 159.878906 279.546875 C 159.035156 280.324219 158.980469 281.640625 159.757812 282.484375 C 160.535156 283.332031 161.847656 283.386719 162.695312 282.609375 C 162.707031 282.59375 167.929688 278.015625 164.183594 261.667969 C 161.082031 248.160156 162.222656 239.4375 162.4375 238.0625 C 163.222656 236.148438 167.382812 224.828125 162.386719 210.304688 C 157.976562 197.492188 159.964844 191.734375 160.429688 190.667969 C 161.488281 189.332031 165.03125 183.613281 160.953125 170.582031 C 160.257812 168.355469 159.789062 166.070312 159.492188 163.808594 L 159.433594 163.367188 C 158.9375 163.324219 158.441406 163.285156 157.949219 163.238281 C 157.398438 163.324219 156.828125 163.339844 156.25 163.273438 C 155.914062 163.234375 155.574219 163.199219 155.230469 163.167969 Z M 155.230469 163.167969"/><path fill="#FFFFFE" d="M 177.339844 163.921875 C 178.066406 165.660156 178.003906 167.789062 176.65625 173.042969 L 176.648438 173.039062 C 176.574219 173.332031 176.566406 173.621094 176.609375 173.898438 C 176.738281 174.953125 177.675781 180.089844 183.839844 183.09375 C 188.761719 185.492188 184.191406 191.246094 185.660156 193.320312 C 194.445312 206.730469 205.496094 198.1875 204.175781 191.320312 C 204.058594 190.445312 203.230469 183.175781 207.675781 179.304688 C 209.253906 178.429688 216.640625 173.746094 212.535156 164.660156 C 213.042969 163.503906 213.929688 161.359375 214.730469 158.8125 C 213.152344 159.1875 211.566406 159.546875 209.976562 159.894531 C 209.261719 161.84375 208.609375 163.269531 208.425781 163.667969 C 208.09375 164.261719 208.058594 165.003906 208.394531 165.648438 L 208.402344 165.644531 C 212.867188 174.191406 198.515625 176.554688 200 191.429688 C 196.453125 199.632812 191.339844 193.992188 189.660156 191.765625 C 190.417969 189.105469 191.667969 182.277344 185.664062 179.351562 C 181.714844 177.425781 180.929688 174.558594 180.777344 173.679688 C 182.097656 168.402344 182.320312 165.808594 181.785156 163.820312 C 180.304688 163.882812 178.820312 163.921875 177.339844 163.921875 Z M 177.339844 163.921875"/><path fill="#FFFFFE" d="M 231.136719 154.058594 C 231.257812 156.386719 231.324219 158.804688 231.292969 161.210938 C 231.226562 166.457031 230.714844 171.691406 229.402344 175.957031 C 228.273438 179.621094 226.582031 183 224.902344 186.363281 C 219.636719 196.890625 214.441406 207.289062 224.011719 226.25 C 223.257812 230.820312 219.042969 257.417969 221.695312 262.929688 C 223.933594 267.585938 220.4375 278.203125 220.429688 278.234375 C 220.074219 279.324219 220.671875 280.5 221.765625 280.855469 C 222.855469 281.210938 224.03125 280.613281 224.386719 279.519531 C 224.394531 279.484375 228.410156 267.296875 225.4375 261.121094 C 223.207031 256.488281 227.847656 228.488281 228.203125 226.386719 C 228.308594 225.921875 228.261719 225.417969 228.023438 224.960938 L 228.019531 224.964844 C 218.984375 207.472656 223.769531 197.90625 228.613281 188.21875 C 230.378906 184.6875 232.152344 181.136719 233.375 177.179688 C 234.816406 172.5 235.371094 166.863281 235.441406 161.261719 C 235.484375 158.042969 235.367188 154.84375 235.164062 151.84375 C 234.894531 152 234.625 152.15625 234.363281 152.304688 L 234.402344 152.378906 Z M 231.136719 154.058594"/><path fill="#FFFFFE" d="M 181.34375 176.371094 C 181.609375 175.253906 180.917969 174.136719 179.804688 173.871094 C 178.691406 173.605469 177.570312 174.292969 177.304688 175.410156 C 176.804688 177.492188 176.253906 178.113281 176.253906 178.113281 L 176.25 178.113281 C 176.019531 178.34375 175.855469 178.617188 175.757812 178.90625 C 175.234375 180.203125 172.503906 188.234375 177.46875 204.753906 C 182.4375 221.285156 177.617188 233.539062 177.527344 233.757812 L 177.523438 233.757812 C 177.4375 233.96875 177.394531 234.1875 177.382812 234.402344 C 177.160156 236 175.890625 246.789062 179.160156 263.105469 C 182.417969 279.378906 178.84375 282.929688 178.835938 282.9375 C 178.039062 283.765625 178.066406 285.082031 178.890625 285.875 C 179.71875 286.671875 181.035156 286.644531 181.828125 285.820312 C 181.84375 285.804688 186.933594 280.703125 183.242188 262.289062 C 180.113281 246.667969 181.273438 236.597656 181.484375 235.042969 C 182.148438 233.230469 186.484375 220.289062 181.457031 203.566406 C 176.890625 188.367188 179.136719 181.640625 179.550781 180.601562 C 180.011719 179.945312 180.816406 178.5625 181.34375 176.371094 Z M 181.34375 176.371094"/><path fill="#FFFFFE" d="M 213.511719 171.285156 C 213.390625 170.144531 212.367188 169.316406 211.226562 169.4375 C 210.085938 169.558594 209.257812 170.585938 209.378906 171.726562 C 210.308594 180.308594 208.121094 182.820312 208.074219 182.871094 L 208.066406 182.863281 C 207.894531 183.066406 207.769531 183.296875 207.691406 183.535156 C 207.183594 184.816406 204.433594 193.046875 209.40625 210.078125 C 214.382812 227.125 209.546875 239.777344 209.457031 240.011719 L 209.453125 240.007812 C 209.386719 240.179688 209.347656 240.355469 209.328125 240.53125 C 209.171875 241.640625 207.726562 252.855469 211.09375 270.15625 C 214.371094 286.976562 210.757812 290.664062 210.746094 290.675781 C 209.96875 291.515625 210.019531 292.828125 210.859375 293.605469 C 211.699219 294.382812 213.011719 294.332031 213.789062 293.492188 C 213.804688 293.476562 218.855469 288.257812 215.179688 269.371094 C 212.023438 253.167969 213.234375 242.71875 213.433594 241.238281 C 214.113281 239.320312 218.398438 226.070312 213.394531 208.921875 C 208.8125 193.230469 211.082031 186.269531 211.496094 185.207031 C 212.257812 184.078125 214.453125 179.984375 213.511719 171.285156 Z M 213.511719 171.285156"/></svg>